<svg width="3067" height="3067" viewBox="0 0 3067 3067" fill="none" xmlns="http://www.w3.org/2000/svg">
<circle cx="1534" cy="1533" r="1385" fill="white"/>
<path d="M1254.53 1111.26C294.804 1753.64 1151.8 2299.2 1514.66 1820.84C824.508 3332.51 -119.211 1458.1 1254.53 1111.26Z" fill="#5078FF"/>
<path d="M1290.57 1687.88C1290.57 1795.63 1203.22 1882.98 1095.47 1882.98C987.719 1882.98 900.369 1795.63 900.369 1687.88C900.369 1580.13 987.719 1492.78 1095.47 1492.78C1203.22 1492.78 1290.57 1580.13 1290.57 1687.88Z" fill="#5078FF"/>
<path d="M1307 2003.64C2343.19 2513.6 2387.16 1498.64 1791.45 1423.57C3445.68 1265.43 2294.25 3019.92 1307 2003.64Z" fill="#0A275C"/>
<path d="M1788.35 1684.12C1881.67 1630.24 2000.99 1662.21 2054.86 1755.53C2108.74 1848.84 2076.77 1968.17 1983.45 2022.04C1890.14 2075.92 1770.81 2043.94 1716.94 1950.63C1663.06 1857.31 1695.04 1737.99 1788.35 1684.12Z" fill="#0A275C"/>
<path d="M2061.79 1498.4C1985.33 346.063 1084.36 815.461 1317.2 1368.89C353.132 15.3644 2448.28 135.286 2061.79 1498.4Z" fill="#175BD9"/>
<path d="M1544.39 1241.3C1451.08 1187.43 1419.11 1068.11 1472.98 974.791C1526.86 881.476 1646.18 849.504 1739.5 903.379C1832.81 957.255 1864.78 1076.58 1810.91 1169.89C1757.03 1263.21 1637.71 1295.18 1544.39 1241.3Z" fill="#175BD9"/>
<path d="M1253.75 1111.25C1017.08 1269.67 890.889 1422.19 840.522 1554.93H630.653C729.276 1364.48 925.253 1194.19 1253.75 1111.25Z" fill="#5078FF"/>
</svg>
